<svg width="766" height="756" viewBox="0 0 766 756" fill="none" xmlns="http://www.w3.org/2000/svg">
<path d="M118.88 378.356C116.875 376.157 114.913 374.331 112.992 372.879C110.993 371.324 107.961 369.585 103.896 367.662C99.8432 365.649 94.0861 363.315 86.6245 360.662L4.29486 330.616L6.07093 317.336L28.9474 315.43C63.1176 312.275 90.5571 308.91 111.266 305.335C116.723 304.41 120.91 303.36 123.825 302.187C126.663 300.911 128.735 299.165 130.043 296.949L130.314 296.985L129.046 304.402C127.954 310.509 127.226 314.918 126.864 317.628C125.861 325.127 125.15 332.158 124.732 338.723L124.461 338.687C124.071 335.416 123.193 333.046 121.826 331.576C120.381 330.003 118.349 329.042 115.729 328.691C113.47 328.389 110.383 328.436 106.468 328.832C102.553 329.228 94.6473 330.24 82.7511 331.867C63.6932 334.1 45.6773 336.105 28.7035 337.881L47.7004 345.387C59.1968 349.5 70.4648 352.57 81.5043 354.598C92.4535 356.614 101.753 357.214 109.403 356.398C116.974 355.479 121.54 352.964 123.102 348.85L123.373 348.887C122.341 353.163 121.246 359.637 120.086 368.31C119.627 371.743 119.393 375.206 119.386 378.699L119.115 378.663L118.88 378.356ZM82.5056 358.456L87.5982 320.377L88.7367 320.116L83.5897 358.601L82.5056 358.456ZM28.4955 338.405L28.6949 336.914L29.3725 337.005L29.1731 338.496L28.4955 338.405ZM128.411 301.795C128.374 299.95 127.975 298.317 127.213 296.896C126.451 295.475 124.868 294.058 122.463 292.647C119.972 291.206 116.271 289.636 111.362 287.936L27.5983 259.082C23.4641 257.651 20.1729 256.849 17.7248 256.677C15.3065 256.418 13.4878 256.657 12.2686 257.392C11.0793 258.042 10.2163 259.141 9.67961 260.692C9.41125 261.467 9.22902 262.272 9.13292 263.107L8.48695 262.883C9.13305 259.345 9.6086 254.349 9.91359 247.896C10.1325 241.413 10.0249 236.987 9.59105 234.619L10.7787 232.86L117.624 269.849C122.619 271.578 126.599 272.618 129.564 272.97C132.473 273.205 134.681 272.956 136.188 272.224C137.609 271.463 138.848 270.252 139.905 268.592L140.164 268.682L137.803 274.664C135.785 279.657 134.18 283.875 132.988 287.32C131.974 290.249 130.985 293.524 130.021 297.144L128.669 301.885L128.411 301.795ZM139.627 268.187C139.839 266.353 139.663 264.681 139.1 263.17C138.536 261.66 137.158 260.043 134.964 258.321C132.69 256.558 129.235 254.504 124.599 252.159L45.4805 212.294C41.5765 210.319 38.4231 209.082 36.0205 208.582C33.659 208 31.8247 207.992 30.5177 208.556C29.2519 209.04 28.2487 210.013 27.5082 211.477C27.1379 212.209 26.849 212.982 26.6415 213.797L26.0314 213.488C27.1478 210.069 28.2914 205.183 29.4622 198.83C30.5516 192.435 31.0407 188.035 30.9296 185.629L32.3432 184.046L133.238 235.079C137.955 237.465 141.759 239.031 144.65 239.778C147.5 240.403 149.721 240.454 151.314 239.931C152.824 239.368 154.215 238.335 155.486 236.832L155.73 236.956L152.585 242.567C149.914 247.242 147.756 251.206 146.11 254.459C144.712 257.225 143.291 260.337 141.848 263.795L139.871 268.31L139.627 268.187ZM172.535 215.54C169.477 219.74 165.7 222.684 161.202 224.37C156.685 225.93 151.481 226.031 145.592 224.675C139.682 223.191 133.264 219.928 126.337 214.885C118.526 209.199 111.952 202.665 106.615 195.285C101.258 187.777 97.9609 180.303 96.7247 172.864C95.5422 165.352 96.9895 158.795 101.066 153.195C103.588 149.732 106.999 147.988 111.302 147.963C115.657 147.865 119.972 149.371 124.246 152.483C127.415 154.789 130.097 157.531 132.294 160.709C134.544 163.812 136.077 167.127 136.893 170.652C137.709 172.938 138.184 174.918 138.317 176.593C138.43 178.141 138.178 179.649 137.561 181.116C136.944 182.584 135.975 184.302 134.654 186.272C133.098 188.408 131.676 190.361 130.389 192.13C129.745 193.014 129.527 193.701 129.735 194.19C129.942 194.679 130.552 195.236 131.563 195.859C137.432 199.568 143.079 202.496 148.506 204.643C153.933 206.79 158.707 207.898 162.828 207.967C166.876 207.982 169.838 206.7 171.716 204.121C173.647 201.468 174.249 198.242 173.52 194.442C172.845 190.569 170.341 186.265 166.007 181.532L166.55 181.251C170.716 185.749 173.693 189.946 175.48 193.84C177.194 197.681 177.775 201.373 177.224 204.918C176.673 208.462 175.11 212.003 172.535 215.54ZM131.546 188.914C133.438 186.006 134.655 183.792 135.198 182.271C135.668 180.697 135.521 179.35 134.758 178.23C134.048 177.037 132.588 175.636 130.377 174.026C126.619 171.291 122.489 168.678 117.987 166.19C113.412 163.648 109.285 161.884 105.606 160.897C101.854 159.857 99.4147 160.11 98.2881 161.657C97.0006 163.426 97.8973 166.221 100.978 170.042C104.059 173.863 108.128 177.953 113.185 182.311C118.296 186.595 123.143 190.236 127.725 193.234C128.093 193.502 128.411 193.452 128.68 193.084L131.546 188.914ZM199.089 178.254C199.353 175.29 199.371 172.61 199.141 170.213C198.935 167.689 198.165 164.279 196.832 159.984C195.574 155.638 193.399 149.819 190.307 142.528L156.755 61.5639L167.739 53.8902L184.615 69.4515C210.049 92.4875 231.086 110.423 247.726 123.259C252.099 126.653 255.703 129.027 258.539 130.381C261.398 131.608 264.086 131.954 266.603 131.419L266.759 131.643L260.439 135.725C255.201 139.051 251.462 141.497 249.22 143.063C243.019 147.395 237.359 151.628 232.24 155.76L232.084 155.536C234.229 153.036 235.381 150.786 235.54 148.785C235.721 146.657 235.054 144.51 233.54 142.343C232.235 140.475 230.113 138.233 227.173 135.617C224.234 133.001 218.142 127.862 208.897 120.2C194.363 107.672 180.701 95.7579 167.913 84.4564L175.232 103.526C179.979 114.776 185.338 125.152 191.311 134.655C197.231 144.084 203.078 151.34 208.853 156.422C214.651 161.378 219.592 163.04 223.678 161.409L223.835 161.633C219.987 163.765 214.477 167.337 207.305 172.348C204.465 174.332 201.757 176.502 199.178 178.859L199.022 178.635L199.089 178.254ZM189.146 138.002L220.639 115.999L221.601 116.661L189.772 138.899L189.146 138.002ZM167.386 84.6575L168.619 83.7962L169.011 84.3566L167.778 85.2179L167.386 84.6575ZM258.125 135.063C259.616 133.835 260.671 132.477 261.289 130.988C261.993 129.467 262.114 127.286 261.653 124.445C261.278 121.573 260.211 117.741 258.451 112.95L241.293 66.236C239.636 61.9895 237.805 59.1181 235.798 57.6216C233.792 56.1252 231.618 55.7584 229.277 56.5214L229.183 56.2647C232.183 54.3861 235.865 51.7227 240.23 48.2744C244.564 44.7406 247.511 42.0562 249.07 40.2212L251.008 39.9463L256.141 52.3346C257.402 47.3079 259.132 43.031 261.332 39.5041C263.618 35.9458 266.74 33.3426 270.698 31.6945C275.341 29.795 279.705 29.6485 283.791 31.2551C287.931 32.7446 291.132 36.5694 293.395 42.7296L311.967 93.2939C314.229 99.454 316.552 103.796 318.936 106.319C321.319 108.842 323.978 110.001 326.913 109.797L327.007 110.054L321.78 111.683C316.466 113.343 312.313 114.723 309.318 115.823C306.324 116.923 302.735 118.387 298.551 120.215L293.768 122.262L293.674 122.006C295.228 120.949 296.314 119.677 296.932 118.187C297.636 116.667 297.715 114.501 297.168 111.692C296.676 108.766 295.534 104.864 293.743 99.9874L276.067 51.8615C274.653 48.0114 272.954 45.2369 270.97 43.5379C269.041 41.7219 266.879 41.2539 264.483 42.1338C262.772 42.7623 261.265 43.9469 259.962 45.6876C258.628 47.3428 257.471 49.6126 256.492 52.497L276.675 106.257C278.497 111.219 280.152 114.932 281.64 117.396C283.213 119.828 284.717 121.412 286.152 122.147C287.587 122.882 289.239 123.149 291.107 122.949L291.202 123.205L284.306 125.447C279.677 126.856 276.207 127.984 273.897 128.833C270.732 129.996 267.143 131.459 263.13 133.224L258.219 135.32L258.125 135.063ZM343.912 108.578C338.961 109.362 335.17 108.44 332.538 105.811C329.907 103.183 328.093 98.7178 327.095 92.4161L315.908 21.7926L308.617 22.9476L308.403 21.5972C312.245 20.804 315.813 19.7314 319.105 18.3794C322.474 16.923 325.375 14.8486 327.809 12.1559C330.243 9.46333 331.583 5.97518 331.827 1.69151L332.232 1.62734L334.67 17.0214L346.781 14.8263L347.166 17.257L334.97 18.9119L346.049 88.8602C346.705 93.0013 347.647 96.0358 348.875 97.9638C350.089 99.8017 351.506 100.592 353.127 100.336C354.657 100.093 355.924 99.062 356.928 97.242C358.007 95.3176 358.575 92.7823 358.63 89.6359L359.191 89.6854C359.27 94.8408 358.052 99.0942 355.537 102.445C353.008 105.707 349.133 107.751 343.912 108.578ZM379.554 105.747L369.536 38.0609C368.375 30.5671 367.071 24.9363 365.624 21.1684C364.274 17.3167 362.355 14.9295 359.867 14.0069L359.919 13.3253L362.226 13.6398C366.392 14.1429 371.02 14.59 376.109 14.9812C381.38 15.3863 386.249 15.6692 390.716 15.8297L397.689 16.0915L397.647 16.6368C393.754 17.343 391.258 19.4823 390.161 23.0545C389.154 26.6337 389.183 32.2122 390.246 39.7899L396.393 82.9074L416.501 17.5375L419.636 17.7785L434.352 88.5676L441.523 63.0657C443.808 54.7398 445.007 47.473 445.118 41.2654C445.32 35.0647 444.646 30.1679 443.094 26.5748C441.548 22.8909 439.441 20.5806 436.77 19.644L436.812 19.0988L442.38 19.801C445.826 20.1573 449.046 20.4962 452.038 20.8176C454.498 20.9153 457.141 21.027 459.965 21.1527L464.075 21.1944L464.023 21.876C461.947 22.722 459.675 24.9241 457.208 28.4825C454.747 31.9499 452.308 36.3331 449.889 41.6321C447.569 46.8472 445.493 52.4468 443.662 58.4308L428.596 109.928L418.372 109.142L418.414 108.597L407.055 51.2291L389.882 106.952L379.522 106.155L379.554 105.747ZM486.496 128.077C479.292 124.988 473.087 120.494 467.881 114.593C462.795 108.645 459.558 101.505 458.171 93.1755C456.867 84.8815 458.28 75.9176 462.41 66.2837C466.324 57.1524 471.818 50.2354 478.892 45.5326C486.049 40.8657 493.655 38.2753 501.71 37.7614C509.764 37.2475 517.1 38.409 523.718 41.246C530.923 44.3344 537.068 48.8529 542.154 54.8015C547.36 60.7022 550.614 67.7995 551.918 76.0935C553.222 84.3875 551.809 93.3514 547.679 102.985C543.729 112.2 538.217 119.159 531.143 123.862C524.07 128.565 516.548 131.191 508.577 131.741C500.642 132.207 493.282 130.986 486.496 128.077ZM500.571 127.863C504.843 129.694 508.9 130.293 512.742 129.659C516.584 129.025 519.959 127.398 522.867 124.777C525.812 122.072 528.092 118.835 529.708 115.065C532.724 108.028 533.88 99.2022 533.175 88.5864C532.554 78.0067 530.185 68.2645 526.069 59.3599C522.036 50.4912 516.753 44.6563 510.218 41.8552C504.103 39.2337 498.472 38.9519 493.326 41.0099C488.263 43.1039 484.241 47.6275 481.261 54.5806C477.813 62.6228 476.418 71.8919 477.075 82.388C477.852 92.8361 480.329 102.327 484.505 110.861C488.765 119.43 494.12 125.097 500.571 127.863ZM525.256 141.167C528.203 142.429 531.041 142.275 533.771 140.705C536.628 139.12 540.068 135.678 544.092 130.379L575.413 89.6139C578.331 85.8788 579.904 82.8283 580.133 80.4626C580.49 78.0811 579.35 76.2081 576.715 74.8437L576.968 74.5204C580.13 75.9499 584.499 77.6857 590.075 79.7278C595.723 81.8259 599.665 82.9972 601.903 83.2417L602.536 84.4301L575.554 120.084C581.019 113.828 586.422 108.391 591.764 103.773C597.177 99.212 602.236 95.9929 606.941 94.116C611.645 92.2392 615.498 92.4151 618.499 94.6436C620.782 96.3111 621.888 98.4478 621.819 101.054C621.822 103.716 620.729 106.447 618.541 109.249C616.352 112.05 613.221 114.578 609.148 116.832C605.074 119.086 601.574 120.457 598.647 120.947L598.624 120.755C599.874 119.303 600.468 117.801 600.408 116.25C600.475 114.683 599.826 113.367 598.461 112.301C597.025 111.179 594.955 110.719 592.253 110.921C589.678 111.108 586.73 112.217 583.408 114.248C580.143 116.208 576.855 119.307 573.544 123.545L559.284 142.245C555.108 147.888 552.776 152.428 552.289 155.865C551.859 159.229 553.047 162.297 555.855 165.069L555.687 165.285L549.822 160.356C544.603 155.933 541.06 152.991 539.192 151.533C537.109 149.905 533.972 147.629 529.781 144.702L525.088 141.383L525.256 141.167ZM577.554 115.747L578.365 117.595L575.531 119.892L572.867 120.414L577.554 115.747ZM580.971 190.282C577.583 186.587 576.259 182.916 576.998 179.271C577.737 175.626 580.459 171.648 585.162 167.337L637.872 119.021L632.883 113.579L633.891 112.655C636.674 115.421 639.538 117.803 642.483 119.802C645.557 121.807 648.888 123.081 652.477 123.624C656.066 124.167 659.714 123.358 663.42 121.197L663.698 121.499L652.208 132.031L660.724 140.917L658.91 142.579L650.797 133.324L598.591 181.178C595.5 184.011 593.49 186.472 592.561 188.56C591.698 190.587 591.822 192.205 592.93 193.415C593.977 194.557 595.536 195.044 597.608 194.876C599.809 194.714 602.236 193.787 604.89 192.096L605.158 192.592C600.903 195.503 596.684 196.836 592.502 196.589C588.386 196.281 584.543 194.179 580.971 190.282ZM606.925 224.537C604.085 220.186 602.676 215.61 602.697 210.807C602.845 206.03 604.599 201.13 607.959 196.106C611.446 191.109 616.776 186.269 623.951 181.586C632.041 176.305 640.484 172.481 649.279 170.114C658.201 167.774 666.358 167.347 673.751 168.835C681.193 170.398 686.808 174.08 690.594 179.881C692.936 183.468 693.354 187.277 691.849 191.307C690.393 195.414 687.452 198.912 683.025 201.802C679.743 203.944 676.227 205.477 672.476 206.402C668.776 207.402 665.133 207.658 661.548 207.168C659.121 207.119 657.101 206.859 655.488 206.389C654.001 205.944 652.681 205.173 651.529 204.075C650.377 202.977 649.115 201.46 647.743 199.526C646.298 197.312 644.978 195.29 643.782 193.458C643.184 192.542 642.62 192.094 642.089 192.114C641.558 192.134 640.821 192.507 639.878 193.231C634.327 197.399 629.584 201.638 625.649 205.948C621.714 210.258 618.982 214.327 617.453 218.155C616.001 221.933 616.147 225.157 617.89 227.829C619.684 230.576 622.486 232.285 626.297 232.954C630.158 233.699 635.07 232.887 641.034 230.518L641.104 231.125C635.419 233.421 630.439 234.713 626.163 235C621.965 235.237 618.306 234.469 615.189 232.694C612.071 230.92 609.317 228.201 606.925 224.537ZM646.377 195.683C648.423 198.483 650.06 200.408 651.289 201.456C652.594 202.455 653.905 202.796 655.223 202.48C656.59 202.241 658.419 201.374 660.708 199.879C664.601 197.338 668.51 194.406 672.435 191.081C676.437 187.707 679.553 184.476 681.782 181.388C684.088 178.251 684.717 175.88 683.671 174.278C682.475 172.446 679.544 172.291 674.878 173.813C670.212 175.335 664.943 177.686 659.072 180.865C653.252 184.12 648.126 187.357 643.696 190.575C643.315 190.824 643.248 191.14 643.498 191.521L646.377 195.683ZM620.147 239.344C621.385 240.826 622.751 241.871 624.245 242.479C625.771 243.171 627.952 243.277 630.79 242.796C633.659 242.4 637.483 241.305 642.262 239.511L688.851 222.016C693.085 220.329 695.944 218.477 697.426 216.46C698.907 214.443 699.259 212.267 698.479 209.931L698.735 209.835C700.635 212.821 703.325 216.484 706.804 220.824C710.369 225.133 713.075 228.06 714.921 229.606L715.21 231.542L702.859 236.764C707.895 237.988 712.184 239.688 715.727 241.863C719.301 244.123 721.927 247.226 723.603 251.172C725.536 255.801 725.714 260.164 724.137 264.262C722.678 268.412 718.876 271.641 712.732 273.948L662.303 292.884C656.159 295.191 651.835 297.545 649.329 299.946C646.823 302.347 645.683 305.015 645.908 307.948L645.652 308.044L643.985 302.829C642.287 297.527 640.877 293.384 639.756 290.397C638.634 287.411 637.144 283.832 635.286 279.662L633.204 274.894L633.46 274.798C634.528 276.345 635.808 277.421 637.302 278.029C638.828 278.722 640.993 278.785 643.799 278.218C646.721 277.705 650.615 276.535 655.478 274.709L703.476 256.686C707.315 255.244 710.078 253.525 711.762 251.53C713.564 249.587 714.017 247.422 713.12 245.032C712.479 243.326 711.283 241.827 709.533 240.537C707.869 239.215 705.59 238.075 702.699 237.116L649.086 257.686C644.137 259.544 640.436 261.226 637.983 262.731C635.562 264.321 633.99 265.837 633.265 267.277C632.54 268.718 632.285 270.372 632.499 272.238L632.243 272.334L629.952 265.455C628.509 260.836 627.356 257.375 626.491 255.071C625.305 251.914 623.815 248.336 622.022 244.336L619.891 239.44L620.147 239.344ZM649.421 343.32C649.334 339.675 650.672 336.543 653.435 333.924C656.292 331.394 659.907 330.076 664.281 329.971C672.299 329.778 679.242 332.255 685.11 337.402C691.071 342.638 696.729 350.479 702.086 360.927L712.201 360.684C719.946 360.497 726.58 359.609 732.103 358.017C737.629 356.517 740.359 354.445 740.296 351.803C740.239 349.434 738.645 347.603 735.514 346.311C732.477 345.107 728.452 344.566 723.44 344.686C719.249 344.787 715.799 345.417 713.092 346.576C710.478 347.824 709.473 349.626 710.077 351.982L709.533 352.132C706.361 349.108 704.728 345.683 704.636 341.856C704.555 338.485 705.492 335.727 707.446 333.583C709.403 331.53 712.203 330.46 715.848 330.372C720.586 330.258 725.045 331.792 729.224 334.974C733.495 338.154 736.921 342.265 739.504 347.309C742.089 352.443 743.445 357.653 743.572 362.938C743.68 367.403 742.223 371.267 739.201 374.531C736.18 377.795 731.207 379.51 724.282 379.676L668.106 381.026C664.826 381.105 662.195 381.624 660.212 382.584C658.229 383.543 657.257 384.843 657.297 386.483C657.334 388.032 658.275 389.24 660.119 390.108C662.057 391.064 664.352 391.738 667.006 392.13L666.882 392.68C661.215 392.087 657.025 390.364 654.313 387.512C651.691 384.658 650.326 380.952 650.216 376.396C650.118 372.296 650.907 369.086 652.583 366.766C654.353 364.536 657.006 363.013 660.542 362.199C657.205 359.909 654.541 357.192 652.551 354.049C650.561 350.906 649.518 347.329 649.421 343.32ZM656.684 355.317C656.717 356.684 657.111 357.905 657.867 358.981C658.713 360.055 659.832 361.076 661.222 362.046C661.676 361.944 662.495 361.878 663.679 361.85L701.266 360.946C698.134 355.825 693.903 352.371 688.572 350.584C683.332 348.796 677.159 347.987 670.051 348.158C665.769 348.261 662.459 349.024 660.123 350.448C657.789 351.963 656.643 353.586 656.684 355.317ZM646.849 408.572C647.925 403.396 650.508 399.697 654.601 397.476C658.782 395.272 664.621 394.949 672.117 396.506L723.386 407.157C726.955 407.899 729.679 408.232 731.556 408.156C733.523 408.099 735.019 407.619 736.045 406.715C737.16 405.829 738.074 404.343 738.786 402.257L739.188 402.341C738.435 412.238 738.024 419.368 737.956 423.729L737.943 429.172L737.508 429.919L669.908 415.876C665.893 415.042 662.723 414.616 660.399 414.599C658.146 414.689 656.418 415.168 655.213 416.035C654.009 416.902 653.222 418.228 652.851 420.013C652.48 421.798 652.833 423.686 653.908 425.678C655.055 427.778 656.701 429.936 658.848 432.15L715.605 443.941C719.174 444.682 721.898 445.016 723.775 444.94C725.742 444.883 727.238 444.403 728.264 443.499C729.36 442.702 730.265 441.261 730.977 439.175L731.379 439.259C731.061 443.475 730.769 448.022 730.5 452.9L729.98 461.45L729.944 466.329L729.565 466.809L660.225 452.405C655.496 451.422 651.683 450.956 648.786 451.006C645.961 451.163 643.812 451.648 642.34 452.459C640.939 453.378 639.626 454.549 638.4 455.969L638.372 456.103C639.27 453.125 640.238 449.137 641.276 444.139C642.296 439.231 643.104 435.117 643.701 431.796L643.845 430.43L657.643 431.9C653.402 427.668 650.303 423.766 648.345 420.194C646.477 416.64 645.978 412.767 646.849 408.572ZM640.685 451.93C640.363 455.259 641.524 458.126 644.167 460.533C646.809 462.94 651.236 465.459 657.446 468.09L716.989 493.321L719.923 486.397L721.056 486.877L718.122 493.801L728.822 498.335C735.788 501.287 741.199 504.52 745.055 508.035C748.995 511.585 751.548 515.488 752.714 519.744C753.929 524.119 753.757 528.848 752.198 533.928C751.254 537.092 749.452 539.942 746.793 542.478C744.135 545.014 740.91 546.667 737.12 547.436C733.293 548.29 729.264 547.869 725.033 546.175C723.522 545.535 722.491 543.762 721.941 540.856C721.474 537.986 721.571 535.304 722.231 532.812C722.94 530.44 724.007 529.556 725.434 530.16C733.49 533.574 739.775 535.445 744.289 535.774C748.85 536.222 751.555 534.745 752.403 531.342C752.979 528.815 752.672 526.853 751.481 525.458C750.291 524.063 748.611 523.004 746.442 522.283C744.237 521.646 741.068 520.947 736.936 520.186C733.763 519.732 731.014 519.211 728.69 518.622C726.33 518.117 724.101 517.42 722.003 516.531L710.422 511.623L705.659 523.563L704.023 522.869L709.289 511.143L649.872 485.966C645.172 483.974 641.182 482.878 637.902 482.676C634.706 482.509 632.2 482.932 630.385 483.945C628.57 484.958 626.942 486.347 625.501 488.112L625.109 488.688L624.857 488.581L634.021 468.707C634.732 467.028 636.029 463.618 637.911 458.476L640.433 451.823L640.685 451.93ZM591.605 570.862C586.23 566.491 581.77 563.656 578.223 562.357C574.747 561.116 571.8 561.445 569.382 563.344L569.172 563.169C573.052 558.809 578.614 552.292 585.86 543.618C587.959 544.659 591.609 547.114 596.809 550.982C596.297 549.605 595.791 548.291 595.291 547.042C594 543.469 593.373 540.096 593.412 536.922C593.462 533.876 594.773 530.814 597.344 527.736C601.726 522.49 607.803 520.262 615.574 521.053C623.357 521.972 632.425 526.756 642.778 535.403C650.333 541.714 656.528 548.373 661.363 555.381C666.139 562.458 669.008 569.189 669.97 575.574C671.001 582.017 669.705 587.407 666.082 591.744C664.855 593.213 663.366 594.641 661.614 596.028C659.861 597.414 657.929 598.591 655.815 599.557L671.765 612.879C675.472 615.976 678.609 618.121 681.175 619.314C683.741 620.508 685.876 620.866 687.58 620.39C689.296 620.041 690.809 618.87 692.118 616.876L692.328 617.052L690.206 620.445C687.202 625.18 684.582 629.524 682.349 633.477C680.115 637.431 678.881 640.259 678.646 641.963L677.437 642.557L591.605 570.862ZM595.746 546.71C595.92 547.924 596.858 549.36 598.56 551.019C600.273 552.807 602.919 555.255 606.499 558.363L609.227 560.642L639.866 586.235C643.831 588.597 647.692 590.159 651.449 590.922C655.206 591.685 658.45 591.782 661.182 591.213C663.913 590.644 665.863 589.661 667.032 588.262C668.434 586.583 668.565 584.436 667.424 581.82C666.633 579.497 665.008 576.893 662.549 574.007C660.032 571.192 656.989 568.294 653.422 565.314C644.887 558.186 636.702 552.417 628.864 548.008C621.027 543.6 614.309 540.838 608.708 539.723C603.119 538.736 599.244 539.537 597.082 542.125C595.972 543.454 595.527 544.982 595.746 546.71ZM549.545 576.915C553.643 573.721 558.086 571.934 562.874 571.554C567.646 571.302 572.676 572.64 577.963 575.568C583.234 578.625 588.503 583.532 593.769 590.29C599.709 597.91 604.225 606.004 607.319 614.57C610.397 623.265 611.505 631.357 610.641 638.849C609.705 646.396 606.505 652.299 601.041 656.557C597.662 659.19 593.902 659.925 589.76 658.762C585.546 657.655 581.814 655.017 578.564 650.847C576.155 647.756 574.333 644.38 573.099 640.72C571.792 637.116 571.233 633.507 571.421 629.894C571.267 627.472 571.357 625.437 571.691 623.79C572.009 622.271 572.667 620.891 573.665 619.651C574.663 618.411 576.069 617.027 577.882 615.498C579.967 613.874 581.872 612.389 583.597 611.044C584.46 610.372 584.859 609.772 584.795 609.244C584.73 608.717 584.298 608.014 583.498 607.135C578.88 601.952 574.259 597.579 569.635 594.019C565.011 590.458 560.728 588.076 556.786 586.873C552.9 585.741 549.698 586.156 547.182 588.117C544.594 590.134 543.126 593.069 542.778 596.923C542.358 600.832 543.578 605.66 546.438 611.404L545.838 611.525C543.075 606.052 541.371 601.197 540.728 596.961C540.14 592.797 540.6 589.087 542.108 585.832C543.615 582.577 546.095 579.605 549.545 576.915ZM581.598 613.816C578.978 616.089 577.197 617.881 576.255 619.193C575.369 620.577 575.139 621.912 575.563 623.199C575.917 624.542 576.933 626.291 578.614 628.448C581.472 632.114 584.721 635.764 588.362 639.398C592.059 643.104 595.539 645.938 598.802 647.902C602.122 649.937 604.537 650.366 606.046 649.189C607.772 647.845 607.681 644.911 605.774 640.388C603.867 635.866 601.084 630.812 597.425 625.228C593.694 619.7 590.04 614.863 586.463 610.718C586.183 610.358 585.863 610.318 585.504 610.599L581.598 613.816ZM532.733 592.974C531.439 594.408 530.597 595.907 530.206 597.472C529.734 599.08 529.897 601.276 530.692 604.062C531.488 606.847 533.11 610.479 535.559 614.957L559.552 658.557C561.695 662.476 563.887 664.965 566.128 666.025C568.37 667.084 570.636 667.144 572.926 666.203L573.058 666.443C570.368 668.745 566.982 672.05 562.898 676.361C558.734 680.715 556.097 683.871 554.986 685.829L552.684 686.464L518.524 624.271C515.376 618.512 512.419 614.624 509.653 612.604C506.887 610.585 504.103 609.769 501.303 610.157L501.172 609.918L507.901 606.55C511.631 604.822 514.536 603.39 516.615 602.253C519.574 600.636 523.267 598.46 527.694 595.728L532.601 592.734L532.733 592.974ZM564.828 685.59C568.426 683.622 571.71 683.074 574.679 683.943C577.648 684.813 580.116 687.048 582.083 690.647C584.051 694.245 584.6 697.529 583.73 700.498C582.86 703.467 580.626 705.935 577.027 707.902C573.428 709.87 570.144 710.419 567.175 709.549C564.207 708.679 561.739 706.445 559.771 702.846C557.803 699.247 557.254 695.963 558.124 692.995C558.994 690.026 561.229 687.558 564.828 685.59ZM505.138 609.208C503.596 610.371 502.484 611.683 501.803 613.145C501.036 614.634 500.821 616.808 501.161 619.666C501.413 622.551 502.317 626.425 503.871 631.287L519.023 678.69C520.497 683.003 522.205 685.95 524.146 687.53C526.086 689.111 528.242 689.57 530.614 688.907L530.697 689.168C527.62 690.917 523.828 693.421 519.32 696.68C514.839 700.026 511.781 702.583 510.145 704.35L508.197 704.542L503.596 691.946C502.122 696.914 500.211 701.114 497.863 704.544C495.428 708.001 492.198 710.469 488.173 711.947C483.453 713.647 479.087 713.608 475.073 711.828C471.001 710.164 467.965 706.206 465.967 699.955L449.566 648.646C447.568 642.395 445.432 637.958 443.158 635.336C440.885 632.713 438.277 631.442 435.336 631.521L435.253 631.26L440.545 629.855C445.925 628.423 450.133 627.221 453.172 626.25C456.211 625.279 459.859 623.969 464.117 622.321L468.982 620.479L469.065 620.739C467.468 621.728 466.328 622.954 465.647 624.415C464.879 625.905 464.708 628.064 465.135 630.894C465.502 633.839 466.476 637.786 468.058 642.734L483.668 691.57C484.917 695.477 486.496 698.321 488.406 700.103C490.256 701.999 492.396 702.559 494.827 701.782C496.564 701.227 498.12 700.108 499.495 698.424C500.898 696.827 502.151 694.609 503.253 691.769L485.378 637.198C483.769 632.163 482.273 628.382 480.892 625.858C479.424 623.36 477.989 621.714 476.586 620.918C475.184 620.123 473.545 619.786 471.67 619.906L471.586 619.646L478.572 617.7C483.256 616.49 486.771 615.51 489.115 614.761C492.327 613.734 495.975 612.424 500.059 610.832L505.055 608.948L505.138 609.208ZM411.958 632.042C417.132 631.573 421.835 632.474 426.068 634.744C430.218 637.114 433.724 640.96 436.586 646.283C439.366 651.705 441.142 658.683 441.916 667.216C442.788 676.837 442.208 686.088 440.176 694.966C438.061 703.944 434.614 711.349 429.835 717.182C424.965 723.023 419.08 726.257 412.182 726.882C407.915 727.269 404.355 725.853 401.501 722.634C398.555 719.423 396.844 715.185 396.367 709.92C396.013 706.017 396.307 702.192 397.249 698.446C398.099 694.708 399.581 691.371 401.695 688.434C402.875 686.313 404.052 684.651 405.224 683.446C406.313 682.341 407.613 681.537 409.123 681.034C410.633 680.531 412.565 680.127 414.916 679.822C417.549 679.583 419.954 679.365 422.133 679.168C423.222 679.069 423.882 678.78 424.114 678.302C424.345 677.823 424.361 676.998 424.164 675.826C423.084 668.969 421.563 662.792 419.601 657.295C417.638 651.799 415.325 647.478 412.66 644.334C410.004 641.28 407.087 639.897 403.91 640.185C400.642 640.481 397.819 642.156 395.442 645.208C392.974 648.269 391.389 652.989 390.686 659.368L390.116 659.145C390.753 653.047 391.947 648.042 393.697 644.131C395.456 640.311 397.85 637.44 400.878 635.518C403.907 633.596 407.6 632.437 411.958 632.042ZM418.951 680.417C415.519 680.911 413.051 681.455 411.549 682.049C410.055 682.734 409.139 683.732 408.8 685.044C408.371 686.364 408.28 688.386 408.527 691.109C408.946 695.738 409.704 700.566 410.801 705.592C411.905 710.708 413.299 714.975 414.981 718.392C416.672 721.899 418.47 723.566 420.377 723.394C422.555 723.196 424.066 720.68 424.909 715.844C425.752 711.009 426.145 705.253 426.089 698.577C425.942 691.91 425.486 685.865 424.72 680.443C424.678 679.989 424.431 679.783 423.977 679.824L418.951 680.417ZM361.807 635.171C358.753 635.035 356.338 636.4 354.561 639.266C352.675 642.201 351.154 646.201 349.997 651.266L331.549 732.038C330.19 737.991 329.783 742.433 330.329 745.362C330.787 748.271 332.622 750.467 335.837 751.949L335.806 752.082L329.736 750.416L318.498 747.428C310.501 745.602 301.81 743.944 292.427 742.455C282.935 741.035 277.657 740.811 276.593 741.784L276.327 741.723C276.73 738.73 277.334 732.604 278.14 723.345C278.857 714.066 279.09 708.136 278.838 705.554L279.238 705.645C279.995 711.334 281.49 716.865 283.722 722.236C285.846 727.676 288.35 732.268 291.234 736.012C294.119 739.756 297.294 742.024 300.759 742.816C302.892 743.303 304.565 742.937 305.778 741.718C306.882 740.568 307.739 738.66 308.348 735.994L317.693 695.075C317.734 694.898 317.686 694.7 317.549 694.481C317.411 694.263 317.254 694.134 317.076 694.093L312.011 692.936C309.079 692.266 306.295 692.379 303.66 693.273C301.025 694.167 298.733 695.606 296.784 697.592C294.746 699.557 293.289 701.842 292.413 704.447L292.147 704.386C292.286 702.548 292.628 699.822 293.174 696.207C293.711 692.216 294.029 689.39 294.128 687.73L294.1 679.87C294.056 675.559 294.098 672.717 294.224 671.344L294.491 671.405C295.847 676.109 298.081 680.452 301.191 684.435C304.302 688.417 307.901 690.875 311.988 691.809L317.32 693.027C317.498 693.067 317.696 693.019 317.914 692.882C318.132 692.745 318.262 692.587 318.302 692.41L328.805 646.426C330.002 641.183 330.259 636.988 329.576 633.84C328.783 630.761 326.687 628.272 323.287 626.373L323.348 626.107L332.054 628.516C337.878 630.033 341.757 631.059 343.692 631.595C345.756 631.973 349.207 632.621 354.046 633.539L361.868 634.905L361.807 635.171ZM302.082 622.989C298.928 622.413 296.195 623.193 293.882 625.328C291.447 627.507 288.856 631.627 286.107 637.687L264.606 684.382C262.589 688.671 261.731 691.995 262.033 694.352C262.213 696.754 263.74 698.327 266.612 699.073L266.437 699.445C263.036 698.752 258.391 698.028 252.501 697.274C246.529 696.48 242.425 696.212 240.189 696.47L239.308 695.452L257.712 654.702C253.77 662.015 249.707 668.514 245.522 674.201C241.255 679.849 237.036 684.11 232.865 686.984C228.694 689.857 224.898 690.54 221.477 689.032C218.882 687.913 217.329 686.074 216.818 683.518C216.226 680.923 216.686 678.017 218.198 674.8C219.711 671.583 222.203 668.424 225.675 665.323C229.148 662.222 232.257 660.108 235.002 658.982L235.068 659.164C234.171 660.857 233.924 662.453 234.327 663.952C234.609 665.495 235.533 666.634 237.101 667.371C238.75 668.147 240.87 668.136 243.461 667.34C245.93 666.587 248.558 664.852 251.347 662.134C254.097 659.499 256.616 655.748 258.904 650.882L268.662 629.485C271.483 623.056 272.75 618.112 272.462 614.653C272.136 611.277 270.297 608.549 266.944 606.469L267.06 606.221L273.872 609.726C279.942 612.882 284.05 614.965 286.194 615.973C288.586 617.097 292.15 618.622 296.885 620.546L302.198 622.742L302.082 622.989ZM256.723 659.374L255.522 657.752L257.777 654.884L260.258 653.785L256.723 659.374ZM244.794 592.312C247.712 594.497 249.346 597.486 249.695 601.277C249.917 605.087 248.716 608.743 246.094 612.245C241.286 618.665 235.045 622.589 227.372 624.016C219.571 625.462 209.909 625.059 198.387 622.807L192.322 630.906C187.679 637.107 184.274 642.87 182.109 648.195C179.87 653.464 179.809 656.892 181.925 658.476C183.822 659.896 186.246 659.776 189.198 658.115C192.022 656.472 194.937 653.645 197.942 649.632C200.455 646.276 202.093 643.176 202.857 640.332C203.493 637.506 202.698 635.601 200.474 634.618L200.692 634.099C205.03 633.476 208.731 634.312 211.795 636.606C214.495 638.628 216.083 641.069 216.559 643.931C216.962 646.738 216.071 649.6 213.885 652.519C211.044 656.312 207.081 658.867 201.996 660.184C196.857 661.573 191.507 661.723 185.946 660.633C180.312 659.489 175.38 657.332 171.148 654.164C167.573 651.487 165.438 647.952 164.742 643.559C164.046 639.166 165.774 634.198 169.926 628.653L203.608 583.675C205.575 581.048 206.794 578.659 207.266 576.508C207.739 574.357 207.318 572.789 206.005 571.806C204.765 570.877 203.234 570.869 201.411 571.782C199.462 572.713 197.512 574.1 195.563 575.942L195.207 575.505C199.178 571.419 203.123 569.192 207.042 568.824C210.906 568.53 214.662 569.749 218.31 572.48C221.593 574.939 223.628 577.544 224.414 580.296C225.072 583.066 224.628 586.093 223.081 589.375C226.944 588.169 230.727 587.756 234.427 588.136C238.128 588.516 241.584 589.908 244.794 592.312ZM230.875 590.6C229.78 589.78 228.577 589.335 227.264 589.263C225.897 589.264 224.402 589.511 222.78 590.004C222.58 590.424 222.125 591.108 221.415 592.056L198.878 622.151C204.84 622.857 210.171 621.669 214.872 618.584C219.518 615.573 223.972 611.222 228.233 605.531C230.801 602.102 232.248 599.03 232.574 596.313C232.827 593.542 232.261 591.638 230.875 590.6ZM217.292 528.142C220.799 532.218 223.312 536.188 224.831 540.051C226.361 543.785 226.881 547.185 226.392 550.251C225.903 553.316 224.45 555.889 222.031 557.97C219.198 560.407 215.769 561.312 211.745 560.687C207.72 560.062 203.406 558.122 198.803 554.868C201.401 559.005 202.732 562.789 202.798 566.22C202.735 569.64 201.243 572.727 198.321 575.481C196.229 577.521 193.77 578.855 190.943 579.483C188.048 580.171 185.132 580.275 182.195 579.796C179.129 579.307 176.251 578.477 173.56 577.305C174.636 581.91 174.012 586.775 171.688 591.9C169.364 597.026 165.611 601.817 160.428 606.275C156.075 610.02 151.448 612.678 146.548 614.249C141.647 615.82 136.823 615.942 132.075 614.616C127.199 613.28 122.829 610.367 118.965 605.875C117.717 604.424 116.671 602.859 115.828 601.18C114.915 599.56 114.041 597.427 113.206 594.779C111.78 593.12 109.91 592.204 107.596 592.03C105.223 591.788 102.277 591.857 98.758 592.239C96.1486 592.56 94.3643 592.652 93.4051 592.516C93.0886 592.427 93.2108 591.661 93.7717 590.217C94.2041 588.762 94.9032 587.199 95.8691 585.527C96.8349 583.854 97.7324 582.661 98.5616 581.948C99.8744 580.819 101.426 580.806 103.218 581.91C104.95 582.945 107.242 585.121 110.096 588.437C111.284 589.819 112.375 591.646 113.368 593.918L113.635 594.229C112.283 589.862 112.59 584.908 114.558 579.369C116.396 573.819 119.941 568.786 125.193 564.268C132.862 557.67 140.251 554.38 147.36 554.397C154.399 554.473 160.89 557.966 166.834 564.875C170.104 568.676 172.271 572.522 173.336 576.416C174.651 576.967 176.15 577.241 177.83 577.238C179.382 577.225 180.86 576.916 182.263 576.311C183.596 575.765 184.588 575.031 185.239 574.111C186.571 572.724 187.132 571.28 186.922 569.777C186.583 568.265 185.79 566.784 184.541 565.333C183.234 563.813 181.164 561.686 178.331 558.953C174.231 555.025 171.111 551.818 168.972 549.331C166.297 546.221 164.339 543.457 163.099 541.037C161.799 538.548 161.133 536.236 161.099 534.1C160.995 531.184 161.791 528.335 163.486 525.554C165.122 522.704 167.461 519.971 170.501 517.356C174.854 513.611 179.724 511.586 185.111 511.279C190.439 510.904 195.899 512.219 201.49 515.224C207.091 518.101 212.358 522.407 217.292 528.142ZM210.356 522.386C206.256 518.458 201.476 515.837 196.017 514.522C190.498 513.138 185.424 514.437 180.794 518.42C178.376 520.5 176.823 522.678 176.135 524.953C175.456 527.1 175.994 529.402 177.749 531.861C179.097 533.707 181.687 536.648 185.52 540.685C190.017 545.353 193.796 549.256 196.856 552.395C198.708 554.408 200.806 555.309 203.148 555.097C205.432 554.816 207.886 553.546 210.512 551.287C213.276 548.91 215.292 546.153 216.562 543.017C217.841 539.752 218.033 536.341 217.137 532.783C216.25 529.098 213.99 525.632 210.356 522.386ZM161.415 560.881C160.206 559.756 158.605 559.571 156.609 560.326C154.485 561.072 151.972 562.693 149.07 565.189C145.407 568.34 141.667 572.098 137.849 576.465C132.157 583.405 127.879 590.032 125.013 596.344C122.088 602.588 121.646 606.755 123.686 608.848C125.004 610.239 126.789 610.567 129.041 609.832C131.225 609.155 133.802 607.539 136.773 604.983C141.196 601.179 145.739 596.188 150.404 590.011C155.01 583.764 158.489 577.886 160.842 572.375C163.135 566.795 163.326 562.964 161.415 560.881ZM156.071 497.638C158.577 502.189 159.639 506.859 159.258 511.647C158.752 516.399 156.636 521.154 152.908 525.911C149.056 530.632 143.378 535.059 135.872 539.191C127.409 543.85 118.703 547.03 109.755 548.731C100.683 550.396 92.5168 550.209 85.2564 548.172C77.9521 546.054 72.6296 541.961 69.2889 535.893C67.223 532.14 67.0917 528.311 68.8951 524.405C70.6545 520.419 73.8497 517.151 78.4808 514.602C81.9142 512.711 85.5355 511.446 89.3447 510.806C93.11 510.086 96.7618 510.104 100.3 510.861C102.716 511.092 104.711 511.503 106.284 512.093C107.734 512.647 108.992 513.515 110.059 514.697C111.125 515.879 112.27 517.485 113.493 519.517C114.768 521.833 115.932 523.949 116.987 525.865C117.515 526.823 118.044 527.312 118.575 527.332C119.106 527.352 119.869 527.036 120.863 526.385C126.711 522.645 131.759 518.773 136.006 514.771C140.254 510.768 143.283 506.915 145.094 503.213C146.826 499.554 146.923 496.328 145.384 493.533C143.802 490.659 141.135 488.745 137.385 487.792C133.592 486.759 128.632 487.201 122.507 489.116L122.483 488.505C128.325 486.642 133.388 485.727 137.672 485.762C141.877 485.84 145.467 486.881 148.443 488.884C151.419 490.887 153.962 493.805 156.071 497.638ZM114.567 523.452C112.737 520.506 111.248 518.464 110.102 517.326C108.875 516.233 107.593 515.794 106.256 516.01C104.874 516.147 102.986 516.874 100.59 518.193C96.5183 520.435 92.4003 523.066 88.2366 526.086C83.9931 529.151 80.644 532.139 78.1894 535.051C75.6549 538.007 74.8491 540.323 75.7722 542C76.8272 543.916 79.7384 544.29 84.5057 543.122C89.2731 541.955 94.7031 540.006 100.796 537.276C106.844 534.466 112.198 531.623 116.857 528.746C117.256 528.526 117.346 528.217 117.126 527.818L114.567 523.452ZM143.815 481.284C142.675 479.725 141.38 478.594 139.928 477.891C138.45 477.101 136.28 476.855 133.417 477.152C130.528 477.362 126.642 478.208 121.757 479.69L74.1355 494.139C69.801 495.549 66.8292 497.213 65.2201 499.13C63.6111 501.047 63.1202 503.196 63.7475 505.578L63.4858 505.657C61.7824 502.554 59.3347 498.725 56.1426 494.169C52.8634 489.64 50.3525 486.544 48.6099 484.882L48.4467 482.931L61.1092 478.518C56.163 476.97 51.9925 474.997 48.5977 472.598C45.1764 470.112 42.7566 466.846 41.3384 462.8C39.7084 458.056 39.8126 453.69 41.6509 449.703C43.3756 445.656 47.3778 442.679 53.6576 440.774L105.204 425.134C111.484 423.229 115.952 421.159 118.608 418.924C121.263 416.69 122.574 414.101 122.538 411.159L122.8 411.08L124.126 416.393C125.479 421.792 126.618 426.019 127.544 429.071C128.47 432.124 129.726 435.791 131.311 440.073L133.081 444.965L132.819 445.044C131.854 443.432 130.645 442.275 129.194 441.572C127.716 440.782 125.559 440.58 122.723 440.964C119.773 441.287 115.813 442.203 110.841 443.712L61.7801 458.598C57.8553 459.788 54.9878 461.325 53.1778 463.208C51.2542 465.03 50.6628 467.162 51.4038 469.604C51.9331 471.348 53.0293 472.921 54.6924 474.321C56.2683 475.748 58.468 477.033 61.2914 478.177L116.121 461.112C121.179 459.577 124.981 458.138 127.526 456.794C130.045 455.363 131.712 453.952 132.528 452.562C133.345 451.171 133.706 449.537 133.613 447.661L133.875 447.581L135.717 454.595C136.858 459.297 137.786 462.825 138.5 465.18C139.479 468.407 140.735 472.074 142.267 476.181L144.077 481.204L143.815 481.284Z" fill="black"/>
</svg>
