<?xml version="1.0" encoding="UTF-8"?>
<svg id="Ebene_2" xmlns="http://www.w3.org/2000/svg" version="1.1" viewBox="0 0 644.6 449.7">
  <!-- Generator: Adobe Illustrator 29.7.1, SVG Export Plug-In . SVG Version: 2.1.1 Build 8)  -->
  <defs>
    <style>
      .st0 {
        fill: #fff;
      }
    </style>
  </defs>
  <g id="Ebene_1-2">
    <g>
      <g>
        <path class="st0" d="M129.2,323.6H0V9.3h156.6s-49.7,33.5-63.4,80.1c0,0-9.9,32.3-9.3,53.4h11.8s6.2-38.5,16.8-60.9,26.7-41.6,47.2-57.2S206.6-.9,233.3,0c25.9.9,38.1,3.8,52,10.1,15.5,7,24.1,16.3,29.9,23.5,4.6,5.7,9.1,12.6,10.4,22,1.5,11-4.9,21.4-7.2,25.5-9.3,16.6-12.5,26.9-14.6,35.1-2.6,10.1-1.9,7.4-4.6,25.8h14.3s5.3-40.7,15.5-62.4c10.3-21.7,23-40.4,44.1-55.9C394.2,8,419.4.6,447,.6s121,6.7,117.3,155.8v167.3h-129.2v-152.8s1.8-28.7-12.5-48.6c-14.3-19.9-31.7-17.1-31.7-17.1,0,0-19.6-1.2-29.8,16.8-10.3,18-9.6,29.8-10.6,55.9s0,145.7,0,145.7h-129.8v-152.3s7.8-61.8-41.9-65.9c0,0-21.4-2.2-35.1,18.9-13.7,21.1-13,59-13,59l-1.3,140.2h0Z"/>
        <path class="st0" d="M583.6,293.6c0-17.1,12.8-29.3,30.5-29.3s30.5,12.2,30.5,29.3-13.4,29.9-30.5,29.9-30.5-12.8-30.5-29.9Z"/>
      </g>
      <g>
        <path class="st0" d="M31.9,449l-20.5-69.5c0,0,0-.1-.1-.1,0,0-.1,0-.1.1l-.4,30.3c0,7.8.4,14.3,1.3,19.7,1,5.3,2.3,9.5,4,12.6,1.7,3.1,3.8,5.1,6.4,6.2l1,.3v.2l-4.3-.2c-2.9-.1-5.3-.2-7.4-.2s-4.9,0-8.3.2l-3.6.2v-.2c2.9-2,5.2-6.3,6.9-13,1.7-6.7,2.6-15.2,2.7-25.5l.6-35.2c0-2.9-.1-5.2-.5-6.9-.4-1.7-1.2-3-2.2-3.9-1-1-2.5-1.8-4.5-2.4v-.3c0,0,6,.2,6,.2,3.1.1,6,.2,8.7.3h4.1c.3,0,.6.1.9.3.3.2.5.5.6.8l16.9,58.4,13.5-58.4c.2-.8.7-1.2,1.5-1.2h2c3.6,0,7.4-.1,11.6-.2l7.9-.2h0c-.9.4-1.6.8-2.1,1.2-.5.4-1,1-1.5,1.6-.9,1.3-1.6,3-2.1,5.2-.5,2.2-.7,5.4-.6,9.7l1.7,57.4c.1,3.8.5,6.6,1.2,8.5.7,1.9,2,3.1,4,3.6v.2h-3.1c-3.7-.3-6.8-.4-9.4-.4-4.4,0-8.7.1-12.9.3h-3c0,.1,0,0,0,0,2.1-.5,3.7-1.4,4.7-2.6,1-1.2,1.7-2.8,1.9-4.7.3-1.9.3-4.6.2-8.1l-1.8-66.3c0,0,0-.1,0-.1s0,0,0,.1l-18.9,82.7-3-.5h0Z"/>
        <path class="st0" d="M98.5,445.7c-5.1-2.5-9.4-6.3-12.7-11.5s-4.9-11.6-4.9-19.2,1.7-13.4,5.1-18.6c3.4-5.2,7.8-9.1,13-11.8,5.2-2.7,10.5-4,15.7-4s11.1,1.2,16.3,3.7c5.1,2.5,9.3,6.3,12.6,11.5,3.3,5.2,4.9,11.6,4.9,19.2s-1.7,13.5-5.1,18.7-7.7,9.1-12.9,11.7c-5.2,2.6-10.5,3.9-15.8,3.9s-11.1-1.2-16.3-3.7h0ZM132.7,443c2.4-1.5,4.2-3.6,5.4-6.2,1.2-2.6,1.8-5.4,1.8-8.4,0-5.6-1.7-11.8-5.2-18.7-3.5-6.9-7.9-12.8-13.1-17.5s-10.5-7.2-15.7-7.2-8.7,1.4-11.5,4.3c-2.8,2.9-4.2,7-4.2,12.6s1.7,13,5.2,19.8c3.5,6.8,7.9,12.5,13.1,17,5.3,4.5,10.5,6.8,15.6,6.8s6.2-.8,8.6-2.3h0Z"/>
        <path class="st0" d="M197.2,443.9c.9,2.6,2.5,4.1,4.7,4.5v.2c-4.2-.1-10.5-.2-18.7-.2-.4-1.7-.7-4.8-1-9.6-.5.9-1,1.8-1.5,2.7-1.4,2.4-3,4.3-4.7,5.7-1.8,1.4-4.1,2.1-7,2.1-5,0-9-2.4-12.2-7.1-3.2-4.7-4.7-12-4.7-21.9s.8-13.7,2.5-19.7,4.1-10.7,7.2-14.3c3.1-3.6,6.7-5.3,10.9-5.3s2.9.2,4.5.5c1.6.3,3.2.9,4.7,1.6v-15.1c0-3.5-.3-6.3-.8-8.3-.5-2-1.3-3.4-2.3-4.1-1-.8-2.4-1-4.1-.8v-.2l2.9-.4c4.1-.5,7.7-1.1,11-1.7,3.3-.6,5.4-1.2,6.5-1.9l.9.4v81.5c0,5,.6,8.9,1.5,11.4h0ZM181.4,437.9c.2-1.8.3-4.4.3-7.8v-31.7c-.5-3.3-1.5-6.2-2.8-8.7-1.3-2.5-2.8-4.3-4.4-5.6-1.6-1.3-3.1-1.9-4.4-1.9s-2.9.9-3.8,2.8c-.9,1.5-1.6,3.7-2,6.4-.4,2.7-.6,5.8-.6,9.2,0,8.1.6,15.4,1.8,21.8,1.2,6.4,2.8,11.5,4.8,15.1,2,3.6,4.3,5.4,6.7,5.4s2.3-.5,3.2-1.4c.6-.7,1-1.9,1.1-3.6h0Z"/>
        <path class="st0" d="M213.7,446.7c-2.9-2-5.2-5-6.9-9.1s-2.5-9.2-2.5-15.5,1-13.7,3.1-20.1c2.1-6.3,5.1-11.5,9-15.4,3.9-3.9,8.4-5.9,13.4-5.9s5.6,1.3,7.5,3.8c1.9,2.5,2.8,5.7,2.8,9.6s-.4,5.6-1.3,8.3c-.9,2.7-2.2,5-3.9,7-1,1.5-1.9,2.6-2.8,3.3-.9.8-1.9,1.3-3,1.5-1.1.3-2.6.4-4.3.5h-5.3c-.8,0-1.3.2-1.5.5-.2.3-.3.9-.2,1.8.3,5,1,9.6,2.1,13.7,1.1,4.1,2.5,7.4,4.2,9.8,1.7,2.4,3.8,3.6,6.1,3.6s4.6-1,6.5-3.1c2-2.1,3.4-5.4,4.3-10l.4.2c-.9,4.4-2.1,7.9-3.6,10.6-1.5,2.7-3.5,4.6-5.8,5.8-2.3,1.2-5.1,1.8-8.3,1.8s-7.1-1-10-2.9h0ZM221.8,414.1c2.5-.1,4.3-.4,5.5-.7,1.1-.4,1.9-1,2.2-1.9.4-.9.5-2.4.5-4.4,0-3.4-.2-7-.7-10.7-.5-3.8-1.2-6.9-2.2-9.6-1-2.6-2.2-3.9-3.6-3.9s-2.9,1.7-3.8,5.2c-.9,3.5-1.6,7.6-1.9,12.5-.4,4.8-.4,9.3-.2,13.2,0,.3.2.5.5.5h3.7c0-.1,0,0,0,0Z"/>
        <path class="st0" d="M246,446.5c.8-.9,1.4-2.3,1.8-4.3.4-2,.6-4.9.6-8.7v-64.5c-.1-3.2-.3-5.6-.7-7.4-.4-1.7-1-2.9-1.8-3.6-.8-.7-1.7-1-2.9-1s-1.2,0-1.8.2v-.5c2.6-.4,6.1-1.3,10.7-2.6,4.5-1.4,7.5-2.5,9.1-3.3l1.5.4v82.4c0,3.9.2,6.8.7,8.9s1.2,3.6,2,4.4c.9.8,2,1.4,3.4,1.7v.2l-4.7-.2c-3.9-.2-7.2-.3-9.9-.3s-4.7.1-7.5.3l-3.6.2v-.2c1.3-.5,2.3-1.1,3.1-2h0Z"/>
        <path class="st0" d="M322,449l-20.5-69.5c0,0,0-.1-.1-.1,0,0-.1,0-.1.1l-.4,30.3c0,7.8.4,14.3,1.3,19.7,1,5.3,2.3,9.5,4,12.6,1.7,3.1,3.8,5.1,6.4,6.2l1,.3v.2l-4.3-.2c-2.9-.1-5.3-.2-7.4-.2s-4.9,0-8.3.2l-3.6.2v-.2c2.9-2,5.2-6.3,6.9-13,1.7-6.7,2.6-15.2,2.7-25.5l.6-35.2c0-2.9-.1-5.2-.5-6.9-.4-1.7-1.2-3-2.2-3.9-1-1-2.5-1.8-4.5-2.4v-.3c-.1,0,6,.2,6,.2,3.1.1,6,.2,8.7.3h4.1c.3,0,.6.1.9.3.3.2.5.5.6.8l16.9,58.4,13.5-58.4c.2-.8.7-1.2,1.5-1.2h2c3.6,0,7.4-.1,11.6-.2l7.9-.2h0c-.9.4-1.6.8-2.1,1.2-.5.4-1,1-1.5,1.6-.9,1.3-1.6,3-2.1,5.2-.5,2.2-.7,5.4-.6,9.7l1.7,57.4c.1,3.8.5,6.6,1.2,8.5.7,1.9,2,3.1,4,3.6v.2h-3.1c-3.7-.3-6.8-.4-9.4-.4-4.4,0-8.7.1-12.9.3h-3c0,.1,0,0,0,0,2.1-.5,3.7-1.4,4.7-2.6,1-1.2,1.7-2.8,1.9-4.7.3-1.9.3-4.6.2-8.1l-1.8-66.3c0,0,0-.1-.1-.1s-.1,0-.1.1l-18.9,82.7-3-.5h0Z"/>
        <path class="st0" d="M380.8,446.7c-2.9-2-5.2-5-6.9-9.1s-2.5-9.2-2.5-15.5,1-13.7,3.1-20.1c2.1-6.3,5.1-11.5,9-15.4,3.9-3.9,8.4-5.9,13.4-5.9s5.6,1.3,7.5,3.8c1.9,2.5,2.8,5.7,2.8,9.6s-.4,5.6-1.3,8.3c-.9,2.7-2.2,5-3.9,7-1,1.5-1.9,2.6-2.8,3.3-.9.8-1.9,1.3-3,1.5-1.1.3-2.6.4-4.3.5h-5.3c-.8,0-1.3.2-1.5.5-.2.3-.3.9-.2,1.8.3,5,1,9.6,2.1,13.7,1.1,4.1,2.5,7.4,4.2,9.8,1.7,2.4,3.8,3.6,6.1,3.6s4.6-1,6.5-3.1c2-2.1,3.4-5.4,4.3-10l.4.2c-.9,4.4-2.1,7.9-3.6,10.6-1.5,2.7-3.5,4.6-5.8,5.8-2.3,1.2-5.1,1.8-8.3,1.8s-7.1-1-10-2.9h0ZM388.9,414.1c2.5-.1,4.3-.4,5.5-.7,1.1-.4,1.9-1,2.2-1.9.4-.9.5-2.4.5-4.4,0-3.4-.2-7-.7-10.7-.5-3.8-1.2-6.9-2.2-9.6-1-2.6-2.2-3.9-3.6-3.9s-2.9,1.7-3.8,5.2c-.9,3.5-1.6,7.6-1.9,12.5-.4,4.8-.4,9.3-.2,13.2,0,.3.2.5.5.5h3.7c0-.1,0,0,0,0Z"/>
      </g>
    </g>
  </g>
</svg>