<?xml version="1.0" encoding="UTF-8"?>
<svg id="Ebene_1" xmlns="http://www.w3.org/2000/svg" version="1.1" viewBox="0 0 432 216">
  <!-- Generator: Adobe Illustrator 29.7.1, SVG Export Plug-In . SVG Version: 2.1.1 Build 8)  -->
  <defs>
    <style>
      .st0 {
        fill: #ffd200;
      }

      .st1 {
        fill: #fff;
      }
    </style>
  </defs>
  <rect y="0" width="432" height="72"/>
  <rect class="st0" y="72" width="432" height="144"/>
  <g>
    <path d="M75,180.02h-18.54l-25.33-72.04h19.4l11.49,37.44,5.07,16.93h.62l5.56-16.43,12.98-37.94h18.17l-29.41,72.04Z"/>
    <path d="M190.18,107.98h17.42v58.82h29.78v13.22h-47.21v-72.04Z"/>
    <path d="M244.67,171.99c0-5.06,4.08-9.64,9.64-9.64s9.51,4.45,9.51,9.64c0,4.57-3.83,9.02-9.51,9.02s-9.64-4.33-9.64-9.02Z"/>
    <path d="M297.56,107.98h17.67l24.22,72.04h-18.41l-4.94-17.3h-24.6l-6.05,17.3h-16.32l28.43-72.04ZM296.2,149.5h16.19l-1.85-6.43-4.94-17.8h-.62l-6.43,17.8-2.35,6.43Z"/>
    <path d="M335.38,107.98h65.49v13.22h-24.22v58.82h-17.42v-58.82h-23.85v-13.22Z"/>
    <path d="M142.23,106.62c-20.65,0-37.38,16.73-37.38,37.38s16.73,37.38,37.38,37.38,37.38-16.74,37.38-37.38-16.74-37.38-37.38-37.38ZM142.23,165.74c-12.01,0-21.74-9.73-21.74-21.74s9.73-21.74,21.74-21.74,21.74,9.73,21.74,21.74-9.73,21.74-21.74,21.74Z"/>
  </g>
  <g>
    <path class="st1" d="M41.97,48.91h-2.28l-6.72-18.47h2.79l3.71,10.71,1.55,4.47h.13l1.65-4.34,4.09-10.83h2.72l-7.63,18.47Z"/>
    <path class="st1" d="M56.57,40.04c0-5.54,3.33-9.88,9-9.88s8.39,4.12,8.39,8.96c0,5.13-2.98,10.04-8.9,10.04-5.48,0-8.49-4.09-8.49-9.12ZM71.21,39.57c0-4.05-2-7.22-5.86-7.22s-6.02,3.01-6.02,7.19c0,3.93,1.87,7.44,5.83,7.44,4.31,0,6.05-3.67,6.05-7.41Z"/>
    <path class="st1" d="M83.85,30.45h5.73c3.71,0,6.27,1.74,6.27,5.64,0,2.22-1.11,4.12-3.36,5.1l4.97,7.73h-3.2l-4.25-7.06c-.54.06-1.08.1-1.68.1h-1.9v6.97h-2.6v-18.47ZM86.45,32.6v7.19h1.74c2.88,0,5-.63,5-3.61,0-2.41-1.65-3.55-4.53-3.58h-2.22Z"/>
    <path class="st1" d="M111.35,30.45h2.34l6.05,18.47h-2.82l-1.68-5.73h-6.43l-2.06,5.73h-2.47l7.06-18.47ZM109.6,41.03h5.04l-.7-2.38-1.46-5.07h-.16l-1.84,5.04-.89,2.41Z"/>
    <path class="st1" d="M128.96,30.45h5.73c3.71,0,6.27,1.74,6.27,5.64,0,2.22-1.11,4.12-3.36,5.1l4.97,7.73h-3.2l-4.25-7.06c-.54.06-1.08.1-1.68.1h-1.9v6.97h-2.6v-18.47ZM131.56,32.6v7.19h1.74c2.88,0,5-.63,5-3.61,0-2.41-1.65-3.55-4.53-3.58h-2.22Z"/>
    <path class="st1" d="M151.64,30.45h2.6v16.31h8.43v2.15h-11.02v-18.47Z"/>
    <path class="st1" d="M171.6,30.45h4.81c4.18,0,6.68,1.55,6.68,4.56,0,2.06-1.14,3.42-2.88,4.05v.06c1.49.19,4.18,1.14,4.18,4.53,0,3.07-2.28,5.26-7.19,5.26h-5.61v-18.47ZM174.2,32.6v5.77h1.84c2.91,0,4.31-.89,4.31-2.76,0-2.28-1.93-3.01-4.12-3.01h-2.03ZM174.2,40.52v6.24h2.82c2.66,0,4.62-.85,4.62-3.33s-2.47-2.91-5.92-2.91h-1.52Z"/>
    <path class="st1" d="M194.09,30.45h11.12v2.15h-8.52v5.77h7.06v2.15h-7.06v6.24h8.74v2.15h-11.34v-18.47Z"/>
    <path class="st1" d="M215.16,30.45h5.73c3.71,0,6.27,1.74,6.27,5.64,0,2.22-1.11,4.12-3.36,5.1l4.97,7.73h-3.2l-4.24-7.06c-.54.06-1.08.1-1.68.1h-1.9v6.97h-2.6v-18.47ZM217.76,32.6v7.19h1.74c2.88,0,5-.63,5-3.61,0-2.41-1.65-3.55-4.53-3.58h-2.22Z"/>
    <path class="st1" d="M236.54,39.79c0-5.23,3.42-9.63,9.44-9.63,3.2,0,4.91.82,5.89,1.2v2.57c-1.93-1.14-3.99-1.62-6.05-1.62-3.71,0-6.53,2.57-6.53,7,0,5.13,2.6,7.67,6.75,7.67,1.2,0,2.31-.19,3.29-.48v-6.91h2.6v7.89c-1.87,1.05-3.71,1.68-6.21,1.68-6.05,0-9.19-3.55-9.19-9.38Z"/>
    <path class="st1" d="M273.93,40.04c0-5.54,3.33-9.88,9-9.88s8.39,4.12,8.39,8.96c0,5.13-2.98,10.04-8.9,10.04-5.48,0-8.49-4.09-8.49-9.12ZM288.56,39.57c0-4.05-2-7.22-5.86-7.22s-6.02,3.01-6.02,7.19c0,3.93,1.87,7.44,5.83,7.44,4.31,0,6.05-3.67,6.05-7.41Z"/>
    <path class="st1" d="M301.2,30.45h2.44l10.14,13.87h.03v-13.87h2.6v18.47h-2.44l-10.14-14.25h-.03v14.25h-2.6v-18.47Z"/>
    <path class="st1" d="M327.37,30.45h2.6v16.31h8.43v2.15h-11.02v-18.47Z"/>
    <path class="st1" d="M347.33,30.45h2.6v18.47h-2.6v-18.47Z"/>
    <path class="st1" d="M360.89,30.45h2.44l10.14,13.87h.03v-13.87h2.6v18.47h-2.44l-10.14-14.25h-.03v14.25h-2.6v-18.47Z"/>
    <path class="st1" d="M387.05,30.45h11.12v2.15h-8.52v5.77h7.06v2.15h-7.06v6.24h8.74v2.15h-11.34v-18.47Z"/>
  </g>
</svg>